<?xml version="1.0" encoding="UTF-8"?>
<svg width="46px" height="48px" viewBox="0 0 46 48" version="1.1" xmlns="http://www.w3.org/2000/svg" xmlns:xlink="http://www.w3.org/1999/xlink">
    <!-- Generator: Sketch 53.2 (72643) - https://sketchapp.com -->
    <title>Logo B pixels</title>
    <desc>Created with Sketch.</desc>
    <g id="Home" stroke="none" stroke-width="1" fill="none" fill-rule="evenodd">
        <g id="Search-Results-for-1-Person-only" transform="translate(-393.000000, -16.000000)" fill="#C2A57F">
            <g id="Group-3">
                <g id="Logo-B-pixels" transform="translate(392.000000, 16.000000)">
                    <g id="Group-12" transform="translate(1.280000, 0.213333)">
                        <polygon id="Fill-1" points="0 6.8032 2.26773333 6.8032 2.26773333 4.53546667 0 4.53546667"></polygon>
                        <polygon id="Fill-2" points="6.803136 15.874112 6.803136 15.927872 6.803136 18.1418453 4.53540267 18.1418453 4.53540267 15.927872 4.53540267 15.874112 2.26766933 15.874112 2.26766933 15.927872 2.262336 15.927872 2.26766933 24.9449387 4.26666667e-05 24.9449387 4.26666667e-05 27.2125653 2.26766933 27.2125653 2.26766933 24.9449387 4.53540267 24.9449387 4.53540267 27.2125653 4.53540267 29.4802987 2.26766933 29.4802987 2.262336 36.1991253 2.26766933 36.1991253 2.26766933 36.283392 4.53540267 36.283392 6.803136 36.283392 9.07086933 36.283392 11.3386027 36.283392 13.6062293 36.283392 13.6062293 34.0156587 12.2816427 34.0156587 11.3386027 34.0156587 11.3386027 31.748032 9.07086933 31.748032 6.803136 31.748032 6.803136 29.4802987 6.93134933 29.4802987 9.07086933 29.4802987 9.07086933 27.2125653 6.93134933 27.2125653 6.93134933 24.9449387 6.93134933 22.6772053 6.93134933 20.4095787 6.93134933 18.1418453 9.07086933 18.1418453 9.07086933 15.874112"></polygon>
                        <polygon id="Fill-3" points="13.6062933 34.0157867 15.8740267 34.0157867 15.8740267 31.7480533 13.6062933 31.7480533"></polygon>
                        <polygon id="Fill-4" points="20.4094933 18.14176 22.6772267 18.14176 22.6772267 15.8740267 20.4094933 15.8740267"></polygon>
                        <polygon id="Fill-5" points="27.2125867 6.8032 31.7480533 6.8032 31.7480533 4.53546667 27.2125867 4.53546667"></polygon>
                        <polygon id="Fill-6" points="29.48032 2.26773333 31.7479467 2.26773333 31.7479467 0 29.48032 0"></polygon>
                        <polygon id="Fill-7" points="38.551104 3.2e-05 38.551104 2.26776533 34.0156373 2.26776533 34.0156373 6.80312533 38.551104 6.80312533 38.551104 9.07085867 36.2833707 9.07085867 36.2833707 11.338592 38.551104 11.338592 38.551104 9.07085867 40.8188373 9.07085867 40.8188373 6.80312533 38.551104 6.80312533 38.551104 5.64429867 38.551104 4.53549867 38.551104 2.26776533 40.8188373 2.26776533 40.8188373 3.2e-05"></polygon>
                        <polygon id="Fill-8" points="43.0866133 13.6062933 45.3543467 13.6062933 45.3543467 11.33856 43.0866133 11.33856"></polygon>
                        <polygon id="Fill-9" points="38.5511467 20.4094933 40.81888 20.4094933 40.81888 18.14176 38.5511467 18.14176"></polygon>
                        <path d="M27.2125867,22.6772267 L29.48032,22.6772267 L29.48032,20.4094933 L27.2125867,20.4094933 L27.2125867,22.6772267 Z M36.2834133,24.94496 L35.7268267,24.94496 L34.7940267,24.94496 L34.01568,24.94496 L34.01568,22.6772267 L34.6218667,22.6772267 L36.2834133,22.6772267 L36.2834133,20.4094933 L36.2834133,18.14176 L34.01568,18.14176 L34.01568,15.8740267 L34.01568,15.8740267 L31.7480533,15.8740267 L31.7480533,18.14176 L29.48032,18.14176 L27.2125867,18.14176 L27.2125867,15.8740267 L27.2125867,13.6062933 L24.9448533,13.6062933 L24.9448533,11.33856 L27.2125867,11.33856 L27.2125867,13.6062933 L29.48032,13.6062933 L29.48032,15.8740267 L31.7480533,15.8740267 L31.7480533,13.6062933 L31.7480533,11.33856 L34.01568,11.33856 L34.01568,9.07093333 L29.48032,9.07093333 L29.48032,11.33856 L27.2125867,11.33856 L27.2125867,9.07093333 L26.1856,9.07093333 L24.9448533,9.07093333 L24.9448533,8.47573333 L24.9448533,6.8032 L22.6772267,6.8032 L20.4094933,6.8032 L20.4094933,7.16576 L20.4094933,9.07093333 L18.14176,9.07093333 L15.8740267,9.07093333 L15.8740267,6.8032 L13.6062933,6.8032 L11.33856,6.8032 L9.07082667,6.8032 L6.8032,6.8032 L4.53536,6.8032 L4.53536,9.07093333 L2.26773333,9.07093333 L2.26773333,11.3320533 L2.26773333,11.33856 L4.53536,11.33856 L6.8032,11.33856 L9.07082667,11.33856 L11.33856,11.33856 L13.6062933,11.33856 L15.8740267,11.33856 L15.8740267,13.6062933 L18.14176,13.6062933 L20.4094933,13.6062933 L22.6772267,13.6062933 L22.6772267,15.8740267 L24.3047467,15.8740267 L24.9448533,15.8740267 L24.9448533,18.14176 L24.7934933,18.14176 L22.6772267,18.14176 L22.6772267,20.4094933 L22.6772267,22.6772267 L20.4094933,22.6772267 L18.14176,22.6772267 L18.14176,24.94496 L20.4094933,24.94496 L20.4094933,27.2125867 L22.6772267,27.2125867 L22.6772267,29.48032 L24.9448533,29.48032 L24.9448533,31.7480533 L24.9448533,34.0157867 L24.9448533,36.2834133 L22.6772267,36.2834133 L22.6772267,38.5511467 L20.4094933,38.5511467 L18.14176,38.5511467 L18.14176,40.6877867 C17.68512,40.74592 17.21696,40.7889067 16.7397333,40.8189867 L15.8740267,40.8189867 L13.6062933,40.8189867 L11.33856,40.8189867 L9.07082667,40.8189867 L6.8032,40.8189867 L4.53536,40.8189867 L2.26773333,40.8189867 L2.26773333,40.8564267 L2.26773333,43.08672 L2.26773333,45.3543467 L4.53536,45.3543467 L6.8032,45.3543467 L6.8032,43.08672 L9.07082667,43.08672 L9.07082667,45.3543467 L11.33856,45.3543467 L13.6062933,45.3543467 L15.8740267,45.3543467 L18.14176,45.3543467 L18.5477333,45.3543467 L20.4094933,45.3543467 L20.4094933,47.62208 L22.6772267,47.62208 L22.6772267,45.3543467 L22.6772267,44.7863467 L22.6772267,43.08672 L20.4094933,43.08672 L20.4094933,40.8189867 L22.6772267,40.8189867 L22.6772267,43.08672 L24.9448533,43.08672 L24.9448533,44.08128 L24.9448533,45.3543467 L27.2125867,45.3543467 L27.2125867,43.08672 L29.48032,43.08672 L31.7480533,43.08672 L31.7480533,40.8189867 L31.7480533,38.5898667 C31.7563733,38.5768533 31.7649067,38.56416 31.7732267,38.5511467 L34.01568,38.5511467 L34.01568,36.2834133 L34.01568,34.0157867 L36.2834133,34.0157867 L36.2834133,31.7480533 L36.2834133,29.48032 L36.2834133,27.2125867 L38.5511467,27.2125867 L38.5511467,24.94496 L36.2834133,24.94496 Z" id="Fill-10"></path>
                    </g>
                </g>
            </g>
        </g>
    </g>
</svg>